# Blender 4.0.2
# www.blender.org
mtllib GantryV3.mtl
o GantryV3
v 0.314109 0.493767 -0.075000
v 0.388311 0.493767 -0.075000
v 0.314109 0.317696 -0.075000
v 0.388311 0.165518 -0.075000
v 0.314109 0.165518 -0.075000
v 0.194550 0.148688 -0.075000
v 0.314109 -0.096263 -0.075000
v 0.194550 -0.061272 -0.075000
v 0.194549 -0.096263 -0.075000
v 0.194548 0.317696 -0.075000
v 0.314109 0.317696 0.075000
v 0.314109 0.493767 0.075000
v 0.194549 -0.096263 0.075000
v 0.314109 -0.096263 0.075000
v 0.194550 -0.061272 0.075000
v 0.194550 0.148688 0.075000
v 0.314109 0.165518 0.075000
v 0.194548 0.317696 0.075000
v 0.388311 0.165518 0.075000
v 0.388311 0.493767 0.075000
v -0.367804 -0.180582 -0.090000
v -0.367804 -0.180582 0.090000
v -0.384658 -0.193821 -0.090000
v -0.384658 -0.193821 0.090000
v -0.401858 -0.206607 0.090000
v -0.401858 -0.206607 -0.090000
v -0.419392 -0.218932 0.090000
v -0.419392 -0.218932 -0.090000
v -0.417820 -0.247294 -0.090000
v -0.417820 -0.247294 0.090000
v -0.417820 -0.247294 0.110000
v -0.357423 -0.313507 0.110000
v -0.357423 -0.313507 -0.110000
v -0.417820 -0.247294 -0.110000
v -0.310823 -0.323493 -0.110000
v -0.310823 -0.323493 0.110000
v -0.316145 -0.325377 -0.110000
v -0.316145 -0.325377 0.110000
v -0.321676 -0.326512 -0.110000
v -0.321676 -0.326512 0.110000
v -0.327311 -0.326876 -0.110000
v -0.327311 -0.326876 0.110000
v -0.332942 -0.326463 -0.110000
v -0.332942 -0.326463 0.110000
v -0.338463 -0.325280 -0.110000
v -0.338463 -0.325280 0.110000
v -0.343769 -0.323349 -0.110000
v -0.343769 -0.323349 0.110000
v -0.348759 -0.320708 -0.110000
v -0.348759 -0.320708 0.110000
v -0.353340 -0.317407 -0.110000
v -0.353340 -0.317407 0.110000
v -0.424174 -0.132627 -0.110000
v -0.382470 -0.101983 -0.110000
v -0.344461 -0.066858 -0.110000
v -0.015409 -0.195412 -0.110000
v -0.003690 -0.145029 -0.110000
v -0.310629 -0.027696 -0.110000
v 0.002313 -0.093652 -0.110000
v 0.002523 -0.041925 -0.110000
v -0.281397 0.015011 -0.110000
v -0.003061 0.009500 -0.110000
v -0.257135 0.060724 -0.110000
v -0.014369 0.059976 -0.110000
v -0.031260 0.108868 -0.110000
v -0.238149 0.108868 -0.110000
v -0.015409 -0.195412 -0.090000
v -0.015409 -0.195412 0.090000
v -0.015409 -0.195412 0.110000
v -0.031260 0.108868 -0.090000
v -0.028750 0.102610 -0.090000
v -0.026332 0.096316 -0.090000
v -0.024006 0.089987 -0.090000
v -0.010065 0.043679 -0.090000
v -0.001050 -0.003834 -0.090000
v 0.002939 -0.052030 -0.090000
v 0.001858 -0.100379 -0.090000
v -0.004281 -0.148349 -0.090000
v -0.031260 0.108868 0.110000
v -0.028750 0.102610 0.090000
v -0.031260 0.108868 0.090000
v -0.026332 0.096316 0.090000
v -0.024006 0.089987 0.090000
v -0.014369 0.059976 0.110000
v -0.010065 0.043679 0.090000
v -0.003061 0.009500 0.110000
v -0.001050 -0.003834 0.090000
v 0.002523 -0.041925 0.110000
v 0.002939 -0.052030 0.090000
v 0.002313 -0.093652 0.110000
v 0.001858 -0.100379 0.090000
v -0.003690 -0.145029 0.110000
v -0.004281 -0.148349 0.090000
v 0.171221 -0.195412 -0.090000
v 0.171221 -0.195412 0.090000
v 0.171221 -0.061272 -0.090000
v 0.171221 -0.061272 0.090000
v 0.194551 -0.061272 0.090000
v 0.194551 -0.061272 -0.090000
v -0.424174 -0.132627 -0.090000
v -0.422160 -0.168973 -0.090000
v -0.422160 -0.168973 0.090000
v -0.424174 -0.132627 0.110000
v -0.424174 -0.132627 0.090000
v -0.344461 -0.066858 0.110000
v -0.382470 -0.101983 0.110000
v -0.310629 -0.027696 0.110000
v -0.281397 0.015011 0.110000
v -0.257135 0.060724 0.110000
v -0.238149 0.108868 0.110000
v 0.035560 0.128728 0.090000
v 0.171221 0.148688 0.090000
v 0.194551 0.148688 0.090000
v -0.046374 0.075438 -0.090000
v -0.046374 0.075438 0.090000
v 0.035560 0.128728 -0.090000
v 0.171221 0.148688 -0.090000
v 0.194551 0.148688 -0.090000
v -0.382470 -0.101983 0.090000
v -0.344461 -0.066858 0.090000
v -0.310629 -0.027696 0.090000
v -0.281397 0.015011 0.090000
v -0.257135 0.060724 0.090000
v -0.238149 0.108868 0.090000
v -0.239206 -0.049980 0.090000
v -0.219014 -0.023018 0.090000
v -0.199967 0.004765 0.090000
v -0.182098 0.033319 0.090000
v -0.111531 0.043701 0.090000
v -0.239206 -0.049980 -0.090000
v -0.111531 0.043701 -0.090000
v -0.182098 0.033319 -0.090000
v -0.238149 0.108868 -0.090000
v -0.257135 0.060724 -0.090000
v -0.199967 0.004765 -0.090000
v -0.281397 0.015011 -0.090000
v -0.219014 -0.023018 -0.090000
v -0.310629 -0.027696 -0.090000
v -0.344461 -0.066858 -0.090000
v -0.382470 -0.101983 -0.090000
vn -0.0000 -0.0000 -1.0000
vn -1.0000 -0.0000 -0.0000
vn -0.0000 -0.0000 1.0000
vn -0.0000 1.0000 -0.0000
vn -0.0000 -1.0000 -0.0000
vn 0.6177 -0.7864 -0.0000
vn 0.5966 -0.8025 -0.0000
vn 0.5750 -0.8181 -0.0000
vn -0.8001 0.5999 -0.0000
vn -0.7388 -0.6739 -0.0000
vn 0.3337 -0.9427 -0.0000
vn 0.2010 -0.9796 -0.0000
vn 0.0645 -0.9979 -0.0000
vn -0.0732 -0.9973 -0.0000
vn -0.2095 -0.9778 -0.0000
vn -0.3419 -0.9397 -0.0000
vn -0.4677 -0.8839 -0.0000
vn -0.4678 -0.8839 -0.0000
vn -0.5848 -0.8112 -0.0000
vn -0.5847 -0.8112 -0.0000
vn -0.6906 -0.7232 -0.0000
vn 0.3978 -0.9175 -0.0000
vn 0.9281 0.3723 -0.0000
vn 0.9335 0.3586 -0.0049
vn 0.9385 0.3449 -0.0148
vn 0.9446 0.3263 -0.0345
vn 0.9572 0.2882 0.0288
vn 0.9753 0.2185 -0.0319
vn 0.9822 0.1863 0.0255
vn 0.9938 0.1079 -0.0280
vn 0.9964 0.0825 0.0210
vn 0.9997 -0.0041 -0.0228
vn 0.9996 -0.0223 0.0152
vn 0.9931 -0.1160 -0.0164
vn 0.9919 -0.1269 0.0082
vn 0.9733 -0.2294 -0.0076
vn 0.9738 -0.2272 -0.0017
vn 0.9731 -0.2301 -0.0095
vn 0.9740 -0.2266 -0.0000
vn 0.9335 0.3586 0.0049
vn 0.9385 0.3449 0.0148
vn 0.9446 0.3263 0.0345
vn 0.9572 0.2882 -0.0288
vn 0.9753 0.2185 0.0319
vn 0.9822 0.1863 -0.0255
vn 0.9938 0.1079 0.0280
vn 0.9964 0.0825 -0.0210
vn 0.9997 -0.0041 0.0228
vn 0.9996 -0.0223 -0.0152
vn 0.9931 -0.1160 0.0164
vn 0.9919 -0.1269 -0.0082
vn 0.9738 -0.2272 0.0071
vn 0.9733 -0.2294 0.0018
vn 0.9740 -0.2266 0.0088
vn 0.9732 -0.2301 -0.0000
vn 1.0000 -0.0000 -0.0000
vn -0.9985 -0.0553 -0.0000
vn 1.0000 -0.0000 -0.0001
vn -0.5452 0.8383 -0.0000
vn -0.1456 0.9893 -0.0000
vn 1.0000 -0.0000 0.0001
vn -0.5921 0.8058 -0.0000
vn -0.6787 0.7344 -0.0000
vn -0.7567 0.6537 -0.0000
vn -0.8252 0.5648 -0.0000
vn -0.8833 0.4688 -0.0000
vn -0.9303 0.3669 -0.0000
vn -0.4379 0.8990 -0.0000
vn -0.8004 0.5994 -0.0000
vn -0.8248 0.5655 -0.0000
vn -0.8477 0.5305 -0.0000
s 1
f 1//1 2//1 3//1
f 3//1 2//1 4//1
f 3//1 4//1 5//1
f 3//1 5//1 6//1
f 6//1 5//1 7//1
f 6//1 7//1 8//1
f 8//1 7//1 9//1
f 6//1 10//1 3//1
f 3//2 11//2 1//2
f 1//2 11//2 12//2
f 13//3 14//3 15//3
f 15//3 14//3 16//3
f 14//3 17//3 16//3
f 16//3 17//3 18//3
f 18//3 17//3 11//3
f 11//3 17//3 19//3
f 11//3 19//3 20//3
f 20//3 12//3 11//3
f 18//2 10//2 16//2
f 16//2 10//2 6//2
f 10//4 18//4 3//4
f 3//4 18//4 11//4
f 4//5 19//5 5//5
f 5//5 19//5 17//5
f 21//6 22//6 23//6
f 23//6 22//6 24//6
f 25//7 26//7 24//7
f 24//7 26//7 23//7
f 27//8 28//8 25//8
f 25//8 28//8 26//8
f 21//3 23//3 29//3
f 29//3 23//3 26//3
f 29//3 26//3 28//3
f 29//9 30//9 21//9
f 21//9 30//9 22//9
f 27//1 25//1 30//1
f 30//1 25//1 24//1
f 30//1 24//1 22//1
f 31//10 30//10 32//10
f 32//10 30//10 29//10
f 32//10 29//10 33//10
f 33//10 29//10 34//10
f 35//11 36//11 37//11
f 37//11 36//11 38//11
f 37//12 38//12 39//12
f 39//12 38//12 40//12
f 39//13 40//13 41//13
f 41//13 40//13 42//13
f 41//14 42//14 43//14
f 43//14 42//14 44//14
f 43//15 44//15 45//15
f 45//15 44//15 46//15
f 45//16 46//16 47//16
f 47//16 46//16 48//16
f 47//17 48//18 49//17
f 49//17 48//18 50//18
f 49//19 50//20 51//20
f 51//20 50//20 52//20
f 51//21 52//21 33//21
f 33//21 52//21 32//21
f 53//1 54//1 34//1
f 34//1 54//1 33//1
f 33//1 54//1 35//1
f 35//1 54//1 55//1
f 35//1 55//1 56//1
f 56//1 55//1 57//1
f 55//1 58//1 57//1
f 57//1 58//1 59//1
f 59//1 58//1 60//1
f 60//1 58//1 61//1
f 60//1 61//1 62//1
f 62//1 61//1 63//1
f 62//1 63//1 64//1
f 64//1 63//1 65//1
f 63//1 66//1 65//1
f 39//1 43//1 37//1
f 37//1 43//1 45//1
f 37//1 45//1 35//1
f 35//1 45//1 47//1
f 35//1 47//1 49//1
f 39//1 41//1 43//1
f 49//1 51//1 35//1
f 35//1 51//1 33//1
f 56//22 67//22 35//22
f 35//22 67//22 68//22
f 35//22 68//22 36//22
f 36//22 68//22 69//22
f 65//23 70//23 71//23
f 72//24 65//24 71//24
f 73//25 65//25 72//25
f 73//26 64//26 65//26
f 74//27 64//27 73//27
f 74//28 62//28 64//28
f 75//29 62//29 74//29
f 75//30 60//30 62//30
f 76//31 60//31 75//31
f 76//32 59//32 60//32
f 77//33 59//33 76//33
f 77//34 57//34 59//34
f 78//35 57//35 77//35
f 67//36 57//37 78//38
f 56//39 57//37 67//36
f 79//23 80//23 81//23
f 79//40 82//40 80//40
f 83//41 82//41 79//41
f 84//42 83//42 79//42
f 85//43 83//43 84//43
f 86//44 85//44 84//44
f 87//45 85//45 86//45
f 88//46 87//46 86//46
f 89//47 87//47 88//47
f 90//48 89//48 88//48
f 91//49 89//49 90//49
f 92//50 91//50 90//50
f 93//51 91//51 92//51
f 69//52 93//53 92//54
f 68//55 93//53 69//52
f 94//5 95//5 67//5
f 67//5 95//5 68//5
f 96//56 97//56 94//56
f 94//56 97//56 95//56
f 98//5 97//5 15//5
f 15//5 97//5 96//5
f 15//5 96//5 8//5
f 8//5 96//5 99//5
f 7//5 14//5 9//5
f 9//5 14//5 13//5
f 9//2 13//2 8//2
f 8//2 13//2 15//2
f 100//57 53//57 101//57
f 101//57 53//57 34//57
f 101//57 34//57 28//57
f 28//57 34//57 29//57
f 28//57 27//57 101//57
f 101//57 27//57 102//57
f 30//57 31//57 27//57
f 27//57 31//57 102//57
f 31//57 103//57 102//57
f 102//57 103//57 104//57
f 69//3 105//3 36//3
f 36//3 105//3 106//3
f 36//3 106//3 32//3
f 32//3 106//3 31//3
f 69//3 92//3 105//3
f 105//3 92//3 107//3
f 92//3 90//3 107//3
f 107//3 90//3 88//3
f 107//3 88//3 108//3
f 108//3 88//3 86//3
f 108//3 86//3 109//3
f 109//3 86//3 84//3
f 109//3 84//3 110//3
f 110//3 84//3 79//3
f 106//3 103//3 31//3
f 32//3 52//3 36//3
f 36//3 52//3 50//3
f 36//3 50//3 48//3
f 48//3 46//3 36//3
f 36//3 46//3 38//3
f 46//3 44//3 38//3
f 38//3 44//3 40//3
f 44//3 42//3 40//3
f 83//3 85//3 111//3
f 111//3 85//3 87//3
f 111//3 87//3 97//3
f 97//3 87//3 89//3
f 97//3 89//3 91//3
f 97//3 91//3 95//3
f 95//3 91//3 93//3
f 95//3 93//3 68//3
f 111//3 97//3 112//3
f 112//3 97//3 98//3
f 112//3 98//3 113//3
f 98//58 15//58 113//56
f 113//56 15//58 16//56
f 114//59 115//59 73//59
f 73//59 115//59 83//59
f 73//59 83//59 116//59
f 116//59 83//59 111//59
f 116//60 111//60 117//60
f 117//60 111//60 112//60
f 118//1 99//1 117//1
f 117//1 99//1 96//1
f 117//1 96//1 116//1
f 116//1 96//1 75//1
f 116//1 75//1 74//1
f 67//1 78//1 94//1
f 94//1 78//1 77//1
f 94//1 77//1 96//1
f 96//1 77//1 76//1
f 96//1 76//1 75//1
f 74//1 73//1 116//1
f 118//4 117//4 6//4
f 6//4 117//4 112//4
f 6//4 112//4 16//4
f 16//4 112//4 113//4
f 8//61 99//61 6//56
f 6//56 99//61 118//56
f 104//62 103//62 119//62
f 119//62 103//62 106//62
f 119//63 106//63 120//63
f 120//63 106//63 105//63
f 120//64 105//64 121//64
f 121//64 105//64 107//64
f 121//65 107//65 122//65
f 122//65 107//65 108//65
f 122//66 108//66 123//66
f 123//66 108//66 109//66
f 123//67 109//67 124//67
f 124//67 109//67 110//67
f 120//1 125//1 119//1
f 119//1 125//1 102//1
f 119//1 102//1 104//1
f 120//1 121//1 125//1
f 125//1 121//1 126//1
f 121//1 122//1 126//1
f 126//1 122//1 127//1
f 122//1 123//1 127//1
f 127//1 123//1 128//1
f 123//1 124//1 128//1
f 128//1 124//1 129//1
f 129//1 124//1 115//1
f 115//1 124//1 81//1
f 115//1 81//1 80//1
f 80//1 82//1 115//1
f 115//1 82//1 83//1
f 124//4 110//4 81//4
f 81//4 110//4 79//4
f 101//59 102//59 130//59
f 130//59 102//59 125//59
f 129//60 131//60 128//60
f 128//60 131//60 132//60
f 131//68 129//68 114//68
f 114//68 129//68 115//68
f 73//3 72//3 114//3
f 114//3 72//3 71//3
f 114//3 71//3 70//3
f 70//3 133//3 114//3
f 114//3 133//3 131//3
f 131//3 133//3 132//3
f 132//3 133//3 134//3
f 132//3 134//3 135//3
f 135//3 134//3 136//3
f 135//3 136//3 137//3
f 137//3 136//3 138//3
f 137//3 138//3 130//3
f 130//3 138//3 139//3
f 130//3 139//3 140//3
f 100//3 101//3 140//3
f 140//3 101//3 130//3
f 66//4 133//4 65//4
f 65//4 133//4 70//4
f 130//69 125//69 137//69
f 137//69 125//69 126//69
f 127//70 135//70 126//70
f 126//70 135//70 137//70
f 128//71 132//71 127//71
f 127//71 132//71 135//71
f 133//67 66//67 134//67
f 134//67 66//67 63//67
f 134//66 63//66 136//66
f 136//66 63//66 61//66
f 136//65 61//65 138//65
f 138//65 61//65 58//65
f 138//64 58//64 139//64
f 139//64 58//64 55//64
f 139//63 55//63 140//63
f 140//63 55//63 54//63
f 140//62 54//62 100//62
f 100//62 54//62 53//62
f 1//4 12//4 2//4
f 2//4 12//4 20//4
f 2//56 20//56 4//56
f 4//56 20//56 19//56
f 5//56 17//56 7//56
f 7//56 17//56 14//56
